{
    "asset" : {
        "generator" : "Khronos glTF Blender I/O v1.6.16",
        "version" : "2.0"
    },
    "scene" : 0,
    "scenes" : [
        {
            "name" : "Scene",
            "nodes" : [
                7
            ]
        }
    ],
    "nodes" : [
        {
            "name" : "Bone.002",
            "rotation" : [
                5.426116800322234e-08,
                -4.704337475125442e-10,
                1.1619221140790614e-09,
                1
            ],
            "scale" : [
                1,
                1.0000001192092896,
                1.0000001192092896
            ],
            "translation" : [
                1.7524257600598503e-09,
                2.3184046745300293,
                7.676135282963514e-09
            ]
        },
        {
            "name" : "Bone.003",
            "rotation" : [
                -0.7100691199302673,
                -0.0013266521273180842,
                0.7041243314743042,
                0.0030077286064624786
            ],
            "scale" : [
                1,
                0.9999999403953552,
                1.0000001192092896
            ],
            "translation" : [
                1.1947847604751587,
                1.9710636138916016,
                7.022172212600708e-07
            ]
        },
        {
            "name" : "Bone.010",
            "rotation" : [
                -0.7070960998535156,
                -0.0037521198391914368,
                0.7070975303649902,
                0.003752173390239477
            ],
            "scale" : [
                1.0000001192092896,
                1,
                1
            ],
            "translation" : [
                -1.1052149534225464,
                1.971063494682312,
                2.123415470123291e-07
            ]
        },
        {
            "name" : "Bone.006",
            "rotation" : [
                0.7064313292503357,
                0.037337206304073334,
                -0.7058372497558594,
                0.0368025116622448
            ],
            "scale" : [
                0.9999999403953552,
                0.9999998211860657,
                1
            ],
            "translation" : [
                0.4382604658603668,
                -0.21274115145206451,
                2.1257433502341883e-07
            ]
        },
        {
            "name" : "Bone.008",
            "rotation" : [
                -0.7062931656837463,
                0.0290804672986269,
                0.7067409157752991,
                0.02866499125957489
            ],
            "scale" : [
                0.9999998211860657,
                0.9999998807907104,
                0.9999998211860657
            ],
            "translation" : [
                -0.36173951625823975,
                -0.21274104714393616,
                8.498312809024355e-08
            ]
        },
        {
            "children" : [
                0,
                1,
                2,
                3,
                4
            ],
            "name" : "Bone.001",
            "rotation" : [
                -0.002848323667421937,
                0.7045480012893677,
                0.002827957272529602,
                0.7096450328826904
            ],
            "scale" : [
                1,
                0.9999999403953552,
                0.9999998807907104
            ],
            "translation" : [
                -0.0401814840734005,
                2.4398250579833984,
                0.009008008055388927
            ]
        },
        {
            "mesh" : 0,
            "name" : "Cube.002",
            "skin" : 0
        },
        {
            "children" : [
                6,
                5
            ],
            "name" : "Armature"
        }
    ],
    "animations" : [
        {
            "channels" : [
                {
                    "sampler" : 0,
                    "target" : {
                        "node" : 5,
                        "path" : "translation"
                    }
                },
                {
                    "sampler" : 1,
                    "target" : {
                        "node" : 5,
                        "path" : "rotation"
                    }
                },
                {
                    "sampler" : 2,
                    "target" : {
                        "node" : 5,
                        "path" : "scale"
                    }
                },
                {
                    "sampler" : 3,
                    "target" : {
                        "node" : 0,
                        "path" : "translation"
                    }
                },
                {
                    "sampler" : 4,
                    "target" : {
                        "node" : 0,
                        "path" : "rotation"
                    }
                },
                {
                    "sampler" : 5,
                    "target" : {
                        "node" : 0,
                        "path" : "scale"
                    }
                },
                {
                    "sampler" : 6,
                    "target" : {
                        "node" : 1,
                        "path" : "translation"
                    }
                },
                {
                    "sampler" : 7,
                    "target" : {
                        "node" : 1,
                        "path" : "rotation"
                    }
                },
                {
                    "sampler" : 8,
                    "target" : {
                        "node" : 1,
                        "path" : "scale"
                    }
                },
                {
                    "sampler" : 9,
                    "target" : {
                        "node" : 2,
                        "path" : "translation"
                    }
                },
                {
                    "sampler" : 10,
                    "target" : {
                        "node" : 2,
                        "path" : "rotation"
                    }
                },
                {
                    "sampler" : 11,
                    "target" : {
                        "node" : 2,
                        "path" : "scale"
                    }
                },
                {
                    "sampler" : 12,
                    "target" : {
                        "node" : 3,
                        "path" : "translation"
                    }
                },
                {
                    "sampler" : 13,
                    "target" : {
                        "node" : 3,
                        "path" : "rotation"
                    }
                },
                {
                    "sampler" : 14,
                    "target" : {
                        "node" : 3,
                        "path" : "scale"
                    }
                },
                {
                    "sampler" : 15,
                    "target" : {
                        "node" : 4,
                        "path" : "translation"
                    }
                },
                {
                    "sampler" : 16,
                    "target" : {
                        "node" : 4,
                        "path" : "rotation"
                    }
                },
                {
                    "sampler" : 17,
                    "target" : {
                        "node" : 4,
                        "path" : "scale"
                    }
                }
            ],
            "name" : "ArmatureAction",
            "samplers" : [
                {
                    "input" : 7,
                    "interpolation" : "LINEAR",
                    "output" : 8
                },
                {
                    "input" : 7,
                    "interpolation" : "LINEAR",
                    "output" : 9
                },
                {
                    "input" : 7,
                    "interpolation" : "LINEAR",
                    "output" : 10
                },
                {
                    "input" : 7,
                    "interpolation" : "LINEAR",
                    "output" : 11
                },
                {
                    "input" : 7,
                    "interpolation" : "LINEAR",
                    "output" : 12
                },
                {
                    "input" : 7,
                    "interpolation" : "LINEAR",
                    "output" : 13
                },
                {
                    "input" : 7,
                    "interpolation" : "LINEAR",
                    "output" : 14
                },
                {
                    "input" : 7,
                    "interpolation" : "LINEAR",
                    "output" : 15
                },
                {
                    "input" : 7,
                    "interpolation" : "LINEAR",
                    "output" : 16
                },
                {
                    "input" : 7,
                    "interpolation" : "LINEAR",
                    "output" : 17
                },
                {
                    "input" : 7,
                    "interpolation" : "LINEAR",
                    "output" : 18
                },
                {
                    "input" : 7,
                    "interpolation" : "LINEAR",
                    "output" : 19
                },
                {
                    "input" : 7,
                    "interpolation" : "LINEAR",
                    "output" : 20
                },
                {
                    "input" : 7,
                    "interpolation" : "LINEAR",
                    "output" : 21
                },
                {
                    "input" : 7,
                    "interpolation" : "LINEAR",
                    "output" : 22
                },
                {
                    "input" : 7,
                    "interpolation" : "LINEAR",
                    "output" : 23
                },
                {
                    "input" : 7,
                    "interpolation" : "LINEAR",
                    "output" : 24
                },
                {
                    "input" : 7,
                    "interpolation" : "LINEAR",
                    "output" : 25
                }
            ]
        }
    ],
    "materials" : [
        {
            "doubleSided" : true,
            "name" : "Material.001",
            "pbrMetallicRoughness" : {}
        }
    ],
    "meshes" : [
        {
            "name" : "Cube.003",
            "primitives" : [
                {
                    "attributes" : {
                        "POSITION" : 0,
                        "NORMAL" : 1,
                        "TEXCOORD_0" : 2,
                        "JOINTS_0" : 3,
                        "WEIGHTS_0" : 4
                    },
                    "indices" : 5,
                    "material" : 0
                }
            ]
        }
    ],
    "skins" : [
        {
            "inverseBindMatrices" : 6,
            "joints" : [
                5,
                0,
                1,
                2,
                3,
                4
            ],
            "name" : "Armature"
        }
    ],
    "accessors" : [
        {
            "bufferView" : 0,
            "componentType" : 5126,
            "count" : 224,
            "max" : [
                0.729979932308197,
                6.432400703430176,
                1.6126946210861206
            ],
            "min" : [
                -0.9148951172828674,
                0.004805713891983032,
                -1.60431969165802
            ],
            "type" : "VEC3"
        },
        {
            "bufferView" : 1,
            "componentType" : 5126,
            "count" : 224,
            "type" : "VEC3"
        },
        {
            "bufferView" : 2,
            "componentType" : 5126,
            "count" : 224,
            "type" : "VEC2"
        },
        {
            "bufferView" : 3,
            "componentType" : 5121,
            "count" : 224,
            "type" : "VEC4"
        },
        {
            "bufferView" : 4,
            "componentType" : 5126,
            "count" : 224,
            "type" : "VEC4"
        },
        {
            "bufferView" : 5,
            "componentType" : 5123,
            "count" : 336,
            "type" : "SCALAR"
        },
        {
            "bufferView" : 6,
            "componentType" : 5126,
            "count" : 6,
            "type" : "MAT4"
        },
        {
            "bufferView" : 7,
            "componentType" : 5126,
            "count" : 151,
            "max" : [
                6.25
            ],
            "min" : [
                0
            ],
            "type" : "SCALAR"
        },
        {
            "bufferView" : 8,
            "componentType" : 5126,
            "count" : 151,
            "type" : "VEC3"
        },
        {
            "bufferView" : 9,
            "componentType" : 5126,
            "count" : 151,
            "type" : "VEC4"
        },
        {
            "bufferView" : 10,
            "componentType" : 5126,
            "count" : 151,
            "type" : "VEC3"
        },
        {
            "bufferView" : 11,
            "componentType" : 5126,
            "count" : 151,
            "type" : "VEC3"
        },
        {
            "bufferView" : 12,
            "componentType" : 5126,
            "count" : 151,
            "type" : "VEC4"
        },
        {
            "bufferView" : 13,
            "componentType" : 5126,
            "count" : 151,
            "type" : "VEC3"
        },
        {
            "bufferView" : 14,
            "componentType" : 5126,
            "count" : 151,
            "type" : "VEC3"
        },
        {
            "bufferView" : 15,
            "componentType" : 5126,
            "count" : 151,
            "type" : "VEC4"
        },
        {
            "bufferView" : 16,
            "componentType" : 5126,
            "count" : 151,
            "type" : "VEC3"
        },
        {
            "bufferView" : 17,
            "componentType" : 5126,
            "count" : 151,
            "type" : "VEC3"
        },
        {
            "bufferView" : 18,
            "componentType" : 5126,
            "count" : 151,
            "type" : "VEC4"
        },
        {
            "bufferView" : 19,
            "componentType" : 5126,
            "count" : 151,
            "type" : "VEC3"
        },
        {
            "bufferView" : 20,
            "componentType" : 5126,
            "count" : 151,
            "type" : "VEC3"
        },
        {
            "bufferView" : 21,
            "componentType" : 5126,
            "count" : 151,
            "type" : "VEC4"
        },
        {
            "bufferView" : 22,
            "componentType" : 5126,
            "count" : 151,
            "type" : "VEC3"
        },
        {
            "bufferView" : 23,
            "componentType" : 5126,
            "count" : 151,
            "type" : "VEC3"
        },
        {
            "bufferView" : 24,
            "componentType" : 5126,
            "count" : 151,
            "type" : "VEC4"
        },
        {
            "bufferView" : 25,
            "componentType" : 5126,
            "count" : 151,
            "type" : "VEC3"
        }
    ],
    "bufferViews" : [
        {
            "buffer" : 0,
            "byteLength" : 2688,
            "byteOffset" : 0
        },
        {
            "buffer" : 0,
            "byteLength" : 2688,
            "byteOffset" : 2688
        },
        {
            "buffer" : 0,
            "byteLength" : 1792,
            "byteOffset" : 5376
        },
        {
            "buffer" : 0,
            "byteLength" : 896,
            "byteOffset" : 7168
        },
        {
            "buffer" : 0,
            "byteLength" : 3584,
            "byteOffset" : 8064
        },
        {
            "buffer" : 0,
            "byteLength" : 672,
            "byteOffset" : 11648
        },
        {
            "buffer" : 0,
            "byteLength" : 384,
            "byteOffset" : 12320
        },
        {
            "buffer" : 0,
            "byteLength" : 604,
            "byteOffset" : 12704
        },
        {
            "buffer" : 0,
            "byteLength" : 1812,
            "byteOffset" : 13308
        },
        {
            "buffer" : 0,
            "byteLength" : 2416,
            "byteOffset" : 15120
        },
        {
            "buffer" : 0,
            "byteLength" : 1812,
            "byteOffset" : 17536
        },
        {
            "buffer" : 0,
            "byteLength" : 1812,
            "byteOffset" : 19348
        },
        {
            "buffer" : 0,
            "byteLength" : 2416,
            "byteOffset" : 21160
        },
        {
            "buffer" : 0,
            "byteLength" : 1812,
            "byteOffset" : 23576
        },
        {
            "buffer" : 0,
            "byteLength" : 1812,
            "byteOffset" : 25388
        },
        {
            "buffer" : 0,
            "byteLength" : 2416,
            "byteOffset" : 27200
        },
        {
            "buffer" : 0,
            "byteLength" : 1812,
            "byteOffset" : 29616
        },
        {
            "buffer" : 0,
            "byteLength" : 1812,
            "byteOffset" : 31428
        },
        {
            "buffer" : 0,
            "byteLength" : 2416,
            "byteOffset" : 33240
        },
        {
            "buffer" : 0,
            "byteLength" : 1812,
            "byteOffset" : 35656
        },
        {
            "buffer" : 0,
            "byteLength" : 1812,
            "byteOffset" : 37468
        },
        {
            "buffer" : 0,
            "byteLength" : 2416,
            "byteOffset" : 39280
        },
        {
            "buffer" : 0,
            "byteLength" : 1812,
            "byteOffset" : 41696
        },
        {
            "buffer" : 0,
            "byteLength" : 1812,
            "byteOffset" : 43508
        },
        {
            "buffer" : 0,
            "byteLength" : 2416,
            "byteOffset" : 45320
        },
        {
            "buffer" : 0,
            "byteLength" : 1812,
            "byteOffset" : 47736
        }
    ],
    "buffers" : [
        {
            "byteLength" : 49548,
            "uri" : "data:application/octet-stream;base64,"
        }
    ]
}
