{
    "asset" : {
        "generator" : "Khronos glTF Blender I/O v1.6.16",
        "version" : "2.0"
    },
    "scene" : 0,
    "scenes" : [
        {
            "name" : "Scene",
            "nodes" : [
                9
            ]
        }
    ],
    "nodes" : [
        {
            "name" : "Bone.001",
            "rotation" : [
                0.5011242628097534,
                0.5007603764533997,
                -0.4989602863788605,
                0.49915146827697754
            ],
            "scale" : [
                1,
                0.9999999403953552,
                1
            ],
            "translation" : [
                0.16327467560768127,
                0.0310943815857172,
                -0.07157507538795471
            ]
        },
        {
            "name" : "Bone.002",
            "rotation" : [
                0.5002234578132629,
                0.5017916560173035,
                -0.49820831418037415,
                0.4997701048851013
            ],
            "scale" : [
                0.9999999403953552,
                1,
                1
            ],
            "translation" : [
                0.1663219928741455,
                0.03110520727932453,
                0.07469341158866882
            ]
        },
        {
            "name" : "Bone.003",
            "rotation" : [
                0.500396728515625,
                0.5016191005706787,
                -0.4983806908130646,
                0.4995979964733124
            ],
            "scale" : [
                0.9999999403953552,
                0.9999999403953552,
                0.9999999403953552
            ],
            "translation" : [
                0.1638680100440979,
                0.720543622970581,
                0.07469350844621658
            ]
        },
        {
            "name" : "Bone.004",
            "rotation" : [
                0.5003968477249146,
                0.5016190409660339,
                -0.49838075041770935,
                0.4995979368686676
            ],
            "scale" : [
                0.9999999403953552,
                0.9999999403953552,
                0.9999999403953552
            ],
            "translation" : [
                0.16133765876293182,
                0.7179952263832092,
                -0.07259072363376617
            ]
        },
        {
            "name" : "Bone.005",
            "rotation" : [
                0.003475332399830222,
                0.7083551287651062,
                -0.0034629879519343376,
                0.705839216709137
            ],
            "scale" : [
                1,
                1.000000238418579,
                1
            ],
            "translation" : [
                -0.0997617244720459,
                0.9549654126167297,
                -0.007582497783005238
            ]
        },
        {
            "name" : "Bone.007",
            "rotation" : [
                0.26654648780822754,
                -0.021981073543429375,
                -0.01267488393932581,
                0.9634880423545837
            ],
            "scale" : [
                1,
                1.0000001192092896,
                1.0000001192092896
            ],
            "translation" : [
                -3.725290298461914e-09,
                0.4090963304042816,
                -3.2887328416109085e-09
            ]
        },
        {
            "children" : [
                5
            ],
            "name" : "Bone.006",
            "rotation" : [
                0.6278073787689209,
                0.32877418398857117,
                -0.6148610711097717,
                0.34599316120147705
            ],
            "scale" : [
                1.0000009536743164,
                1.0000001192092896,
                1
            ],
            "translation" : [
                -0.11035966873168945,
                -0.1100771427154541,
                0.013194970786571503
            ]
        },
        {
            "children" : [
                0,
                1,
                2,
                3,
                4,
                6
            ],
            "name" : "Bone",
            "rotation" : [
                -3.582384111577852e-10,
                4.905858475012792e-08,
                0.002771940315142274,
                0.9999962449073792
            ],
            "scale" : [
                1,
                1.0000001192092896,
                1
            ],
            "translation" : [
                0.08888239413499832,
                0.09581612795591354,
                0.00758258206769824
            ]
        },
        {
            "mesh" : 0,
            "name" : "cube.003",
            "skin" : 0
        },
        {
            "children" : [
                8,
                7
            ],
            "name" : "Armature",
            "rotation" : [
                0,
                0,
                -0.7083640694618225,
                0.7058472633361816
            ],
            "scale" : [
                0.8350960612297058,
                0.8350960612297058,
                0.8350959420204163
            ],
            "translation" : [
                -0.4208321273326874,
                0.44357970356941223,
                0.007582628168165684
            ]
        }
    ],
    "animations" : [
        {
            "channels" : [
                {
                    "sampler" : 0,
                    "target" : {
                        "node" : 7,
                        "path" : "translation"
                    }
                },
                {
                    "sampler" : 1,
                    "target" : {
                        "node" : 7,
                        "path" : "rotation"
                    }
                },
                {
                    "sampler" : 2,
                    "target" : {
                        "node" : 7,
                        "path" : "scale"
                    }
                },
                {
                    "sampler" : 3,
                    "target" : {
                        "node" : 0,
                        "path" : "translation"
                    }
                },
                {
                    "sampler" : 4,
                    "target" : {
                        "node" : 0,
                        "path" : "rotation"
                    }
                },
                {
                    "sampler" : 5,
                    "target" : {
                        "node" : 0,
                        "path" : "scale"
                    }
                },
                {
                    "sampler" : 6,
                    "target" : {
                        "node" : 1,
                        "path" : "translation"
                    }
                },
                {
                    "sampler" : 7,
                    "target" : {
                        "node" : 1,
                        "path" : "rotation"
                    }
                },
                {
                    "sampler" : 8,
                    "target" : {
                        "node" : 1,
                        "path" : "scale"
                    }
                },
                {
                    "sampler" : 9,
                    "target" : {
                        "node" : 2,
                        "path" : "translation"
                    }
                },
                {
                    "sampler" : 10,
                    "target" : {
                        "node" : 2,
                        "path" : "rotation"
                    }
                },
                {
                    "sampler" : 11,
                    "target" : {
                        "node" : 2,
                        "path" : "scale"
                    }
                },
                {
                    "sampler" : 12,
                    "target" : {
                        "node" : 3,
                        "path" : "translation"
                    }
                },
                {
                    "sampler" : 13,
                    "target" : {
                        "node" : 3,
                        "path" : "rotation"
                    }
                },
                {
                    "sampler" : 14,
                    "target" : {
                        "node" : 3,
                        "path" : "scale"
                    }
                },
                {
                    "sampler" : 15,
                    "target" : {
                        "node" : 4,
                        "path" : "translation"
                    }
                },
                {
                    "sampler" : 16,
                    "target" : {
                        "node" : 4,
                        "path" : "rotation"
                    }
                },
                {
                    "sampler" : 17,
                    "target" : {
                        "node" : 4,
                        "path" : "scale"
                    }
                },
                {
                    "sampler" : 18,
                    "target" : {
                        "node" : 6,
                        "path" : "translation"
                    }
                },
                {
                    "sampler" : 19,
                    "target" : {
                        "node" : 6,
                        "path" : "rotation"
                    }
                },
                {
                    "sampler" : 20,
                    "target" : {
                        "node" : 6,
                        "path" : "scale"
                    }
                },
                {
                    "sampler" : 21,
                    "target" : {
                        "node" : 5,
                        "path" : "translation"
                    }
                },
                {
                    "sampler" : 22,
                    "target" : {
                        "node" : 5,
                        "path" : "rotation"
                    }
                },
                {
                    "sampler" : 23,
                    "target" : {
                        "node" : 5,
                        "path" : "scale"
                    }
                }
            ],
            "name" : "ArmatureAction.003",
            "samplers" : [
                {
                    "input" : 7,
                    "interpolation" : "LINEAR",
                    "output" : 8
                },
                {
                    "input" : 7,
                    "interpolation" : "LINEAR",
                    "output" : 9
                },
                {
                    "input" : 7,
                    "interpolation" : "LINEAR",
                    "output" : 10
                },
                {
                    "input" : 7,
                    "interpolation" : "LINEAR",
                    "output" : 11
                },
                {
                    "input" : 7,
                    "interpolation" : "LINEAR",
                    "output" : 12
                },
                {
                    "input" : 7,
                    "interpolation" : "LINEAR",
                    "output" : 13
                },
                {
                    "input" : 7,
                    "interpolation" : "LINEAR",
                    "output" : 14
                },
                {
                    "input" : 7,
                    "interpolation" : "LINEAR",
                    "output" : 15
                },
                {
                    "input" : 7,
                    "interpolation" : "LINEAR",
                    "output" : 16
                },
                {
                    "input" : 7,
                    "interpolation" : "LINEAR",
                    "output" : 17
                },
                {
                    "input" : 7,
                    "interpolation" : "LINEAR",
                    "output" : 18
                },
                {
                    "input" : 7,
                    "interpolation" : "LINEAR",
                    "output" : 19
                },
                {
                    "input" : 7,
                    "interpolation" : "LINEAR",
                    "output" : 20
                },
                {
                    "input" : 7,
                    "interpolation" : "LINEAR",
                    "output" : 21
                },
                {
                    "input" : 7,
                    "interpolation" : "LINEAR",
                    "output" : 22
                },
                {
                    "input" : 7,
                    "interpolation" : "LINEAR",
                    "output" : 23
                },
                {
                    "input" : 7,
                    "interpolation" : "LINEAR",
                    "output" : 24
                },
                {
                    "input" : 7,
                    "interpolation" : "LINEAR",
                    "output" : 25
                },
                {
                    "input" : 7,
                    "interpolation" : "LINEAR",
                    "output" : 26
                },
                {
                    "input" : 7,
                    "interpolation" : "LINEAR",
                    "output" : 27
                },
                {
                    "input" : 7,
                    "interpolation" : "LINEAR",
                    "output" : 28
                },
                {
                    "input" : 7,
                    "interpolation" : "LINEAR",
                    "output" : 29
                },
                {
                    "input" : 7,
                    "interpolation" : "LINEAR",
                    "output" : 30
                },
                {
                    "input" : 7,
                    "interpolation" : "LINEAR",
                    "output" : 31
                }
            ]
        }
    ],
    "meshes" : [
        {
            "name" : "Mesh_3",
            "primitives" : [
                {
                    "attributes" : {
                        "POSITION" : 0,
                        "NORMAL" : 1,
                        "TEXCOORD_0" : 2,
                        "JOINTS_0" : 3,
                        "WEIGHTS_0" : 4
                    },
                    "indices" : 5
                }
            ]
        }
    ],
    "skins" : [
        {
            "inverseBindMatrices" : 6,
            "joints" : [
                7,
                0,
                1,
                2,
                3,
                4,
                6,
                5
            ],
            "name" : "Armature"
        }
    ],
    "accessors" : [
        {
            "bufferView" : 0,
            "componentType" : 5126,
            "count" : 366,
            "max" : [
                0.20288772881031036,
                1.5509071350097656,
                0.14113055169582367
            ],
            "min" : [
                -0.4230704605579376,
                -0.27764707803726196,
                -0.12345150858163834
            ],
            "type" : "VEC3"
        },
        {
            "bufferView" : 1,
            "componentType" : 5126,
            "count" : 366,
            "type" : "VEC3"
        },
        {
            "bufferView" : 2,
            "componentType" : 5126,
            "count" : 366,
            "type" : "VEC2"
        },
        {
            "bufferView" : 3,
            "componentType" : 5121,
            "count" : 366,
            "type" : "VEC4"
        },
        {
            "bufferView" : 4,
            "componentType" : 5126,
            "count" : 366,
            "type" : "VEC4"
        },
        {
            "bufferView" : 5,
            "componentType" : 5123,
            "count" : 396,
            "type" : "SCALAR"
        },
        {
            "bufferView" : 6,
            "componentType" : 5126,
            "count" : 8,
            "type" : "MAT4"
        },
        {
            "bufferView" : 7,
            "componentType" : 5126,
            "count" : 19,
            "max" : [
                3.75
            ],
            "min" : [
                0
            ],
            "type" : "SCALAR"
        },
        {
            "bufferView" : 8,
            "componentType" : 5126,
            "count" : 19,
            "type" : "VEC3"
        },
        {
            "bufferView" : 9,
            "componentType" : 5126,
            "count" : 19,
            "type" : "VEC4"
        },
        {
            "bufferView" : 10,
            "componentType" : 5126,
            "count" : 19,
            "type" : "VEC3"
        },
        {
            "bufferView" : 11,
            "componentType" : 5126,
            "count" : 19,
            "type" : "VEC3"
        },
        {
            "bufferView" : 12,
            "componentType" : 5126,
            "count" : 19,
            "type" : "VEC4"
        },
        {
            "bufferView" : 13,
            "componentType" : 5126,
            "count" : 19,
            "type" : "VEC3"
        },
        {
            "bufferView" : 14,
            "componentType" : 5126,
            "count" : 19,
            "type" : "VEC3"
        },
        {
            "bufferView" : 15,
            "componentType" : 5126,
            "count" : 19,
            "type" : "VEC4"
        },
        {
            "bufferView" : 16,
            "componentType" : 5126,
            "count" : 19,
            "type" : "VEC3"
        },
        {
            "bufferView" : 17,
            "componentType" : 5126,
            "count" : 19,
            "type" : "VEC3"
        },
        {
            "bufferView" : 18,
            "componentType" : 5126,
            "count" : 19,
            "type" : "VEC4"
        },
        {
            "bufferView" : 19,
            "componentType" : 5126,
            "count" : 19,
            "type" : "VEC3"
        },
        {
            "bufferView" : 20,
            "componentType" : 5126,
            "count" : 19,
            "type" : "VEC3"
        },
        {
            "bufferView" : 21,
            "componentType" : 5126,
            "count" : 19,
            "type" : "VEC4"
        },
        {
            "bufferView" : 22,
            "componentType" : 5126,
            "count" : 19,
            "type" : "VEC3"
        },
        {
            "bufferView" : 23,
            "componentType" : 5126,
            "count" : 19,
            "type" : "VEC3"
        },
        {
            "bufferView" : 24,
            "componentType" : 5126,
            "count" : 19,
            "type" : "VEC4"
        },
        {
            "bufferView" : 25,
            "componentType" : 5126,
            "count" : 19,
            "type" : "VEC3"
        },
        {
            "bufferView" : 26,
            "componentType" : 5126,
            "count" : 19,
            "type" : "VEC3"
        },
        {
            "bufferView" : 27,
            "componentType" : 5126,
            "count" : 19,
            "type" : "VEC4"
        },
        {
            "bufferView" : 28,
            "componentType" : 5126,
            "count" : 19,
            "type" : "VEC3"
        },
        {
            "bufferView" : 29,
            "componentType" : 5126,
            "count" : 19,
            "type" : "VEC3"
        },
        {
            "bufferView" : 30,
            "componentType" : 5126,
            "count" : 19,
            "type" : "VEC4"
        },
        {
            "bufferView" : 31,
            "componentType" : 5126,
            "count" : 19,
            "type" : "VEC3"
        }
    ],
    "bufferViews" : [
        {
            "buffer" : 0,
            "byteLength" : 4392,
            "byteOffset" : 0
        },
        {
            "buffer" : 0,
            "byteLength" : 4392,
            "byteOffset" : 4392
        },
        {
            "buffer" : 0,
            "byteLength" : 2928,
            "byteOffset" : 8784
        },
        {
            "buffer" : 0,
            "byteLength" : 1464,
            "byteOffset" : 11712
        },
        {
            "buffer" : 0,
            "byteLength" : 5856,
            "byteOffset" : 13176
        },
        {
            "buffer" : 0,
            "byteLength" : 792,
            "byteOffset" : 19032
        },
        {
            "buffer" : 0,
            "byteLength" : 512,
            "byteOffset" : 19824
        },
        {
            "buffer" : 0,
            "byteLength" : 76,
            "byteOffset" : 20336
        },
        {
            "buffer" : 0,
            "byteLength" : 228,
            "byteOffset" : 20412
        },
        {
            "buffer" : 0,
            "byteLength" : 304,
            "byteOffset" : 20640
        },
        {
            "buffer" : 0,
            "byteLength" : 228,
            "byteOffset" : 20944
        },
        {
            "buffer" : 0,
            "byteLength" : 228,
            "byteOffset" : 21172
        },
        {
            "buffer" : 0,
            "byteLength" : 304,
            "byteOffset" : 21400
        },
        {
            "buffer" : 0,
            "byteLength" : 228,
            "byteOffset" : 21704
        },
        {
            "buffer" : 0,
            "byteLength" : 228,
            "byteOffset" : 21932
        },
        {
            "buffer" : 0,
            "byteLength" : 304,
            "byteOffset" : 22160
        },
        {
            "buffer" : 0,
            "byteLength" : 228,
            "byteOffset" : 22464
        },
        {
            "buffer" : 0,
            "byteLength" : 228,
            "byteOffset" : 22692
        },
        {
            "buffer" : 0,
            "byteLength" : 304,
            "byteOffset" : 22920
        },
        {
            "buffer" : 0,
            "byteLength" : 228,
            "byteOffset" : 23224
        },
        {
            "buffer" : 0,
            "byteLength" : 228,
            "byteOffset" : 23452
        },
        {
            "buffer" : 0,
            "byteLength" : 304,
            "byteOffset" : 23680
        },
        {
            "buffer" : 0,
            "byteLength" : 228,
            "byteOffset" : 23984
        },
        {
            "buffer" : 0,
            "byteLength" : 228,
            "byteOffset" : 24212
        },
        {
            "buffer" : 0,
            "byteLength" : 304,
            "byteOffset" : 24440
        },
        {
            "buffer" : 0,
            "byteLength" : 228,
            "byteOffset" : 24744
        },
        {
            "buffer" : 0,
            "byteLength" : 228,
            "byteOffset" : 24972
        },
        {
            "buffer" : 0,
            "byteLength" : 304,
            "byteOffset" : 25200
        },
        {
            "buffer" : 0,
            "byteLength" : 228,
            "byteOffset" : 25504
        },
        {
            "buffer" : 0,
            "byteLength" : 228,
            "byteOffset" : 25732
        },
        {
            "buffer" : 0,
            "byteLength" : 304,
            "byteOffset" : 25960
        },
        {
            "buffer" : 0,
            "byteLength" : 228,
            "byteOffset" : 26264
        }
    ],
    "buffers" : [
        {
            "byteLength" : 26492,
            "uri" : "data:application/octet-stream;base64,"
        }
    ]
}
