{
    "asset" : {
        "generator" : "Khronos glTF Blender I/O v1.6.16",
        "version" : "2.0"
    },
    "scene" : 0,
    "scenes" : [
        {
            "name" : "Scene",
            "nodes" : [
                9
            ]
        }
    ],
    "nodes" : [
        {
            "name" : "Bone.001",
            "rotation" : [
                0.0008093109936453402,
                -0.0013957341434434056,
                0.008695102296769619,
                0.9999608993530273
            ],
            "scale" : [
                1.0000001192092896,
                1,
                1
            ],
            "translation" : [
                -4.319058444224311e-09,
                1.1918495893478394,
                -2.3580923325106085e-10
            ]
        },
        {
            "name" : "Bone.005",
            "rotation" : [
                0.00015260581858456135,
                -7.493829616578296e-05,
                -0.718906044960022,
                0.6951072812080383
            ],
            "scale" : [
                0.9999997019767761,
                0.9999998807907104,
                0.9999999403953552
            ],
            "translation" : [
                -3.39416938999193e-10,
                1.328418493270874,
                5.8777551714683796e-08
            ]
        },
        {
            "children" : [
                1
            ],
            "name" : "Bone.003",
            "rotation" : [
                -0.999975860118866,
                0.005773890297859907,
                8.122867438942194e-05,
                0.0038929355796426535
            ],
            "scale" : [
                0.9996671676635742,
                0.9999998807907104,
                0.9998694658279419
            ],
            "translation" : [
                -0.025692321360111237,
                1.3203744888305664,
                0.6470404863357544
            ]
        },
        {
            "name" : "Bone.008",
            "rotation" : [
                -0.0001431556884199381,
                -1.9054590666200966e-05,
                -0.7241026759147644,
                0.6896921992301941
            ],
            "scale" : [
                1.0000001192092896,
                1.0000001192092896,
                1
            ],
            "translation" : [
                -4.294249400516037e-09,
                1.3195334672927856,
                -1.920614600692261e-08
            ]
        },
        {
            "children" : [
                3
            ],
            "name" : "Bone.002",
            "rotation" : [
                0.9998804330825806,
                -0.013487285934388638,
                0.0005376357585191727,
                0.007547072134912014
            ],
            "scale" : [
                1.00019109249115,
                1,
                1.0000097751617432
            ],
            "translation" : [
                -0.02578439749777317,
                1.3311960697174072,
                -0.6490630507469177
            ]
        },
        {
            "name" : "Bone.006",
            "rotation" : [
                0.9998023509979248,
                0.002716994611546397,
                -0.000306253379676491,
                0.019691484048962593
            ],
            "scale" : [
                0.9974399209022522,
                0.9999988079071045,
                0.9997396469116211
            ],
            "translation" : [
                -0.01271850150078535,
                -0.25535649061203003,
                0.27343830466270447
            ]
        },
        {
            "name" : "Bone.007",
            "rotation" : [
                -0.999670147895813,
                -0.0062000080943107605,
                -0.00047076624468900263,
                0.024918029084801674
            ],
            "scale" : [
                0.9985894560813904,
                0.9999987483024597,
                0.99959796667099
            ],
            "translation" : [
                -0.012856265529990196,
                -0.23877228796482086,
                -0.25405070185661316
            ]
        },
        {
            "children" : [
                0,
                2,
                4,
                5,
                6
            ],
            "name" : "Bone",
            "rotation" : [
                0.0002878337982110679,
                3.8064388974135e-08,
                -0.004116930533200502,
                0.9999915957450867
            ],
            "scale" : [
                1.0000001192092896,
                0.9999998807907104,
                0.9999998807907104
            ],
            "translation" : [
                0.0148212481290102,
                1.7186721563339233,
                0.009976030327379704
            ]
        },
        {
            "mesh" : 0,
            "name" : "Skeleton_02 - Default_0",
            "skin" : 0
        },
        {
            "children" : [
                8,
                7
            ],
            "name" : "Armature"
        }
    ],
    "animations" : [
        {
            "channels" : [
                {
                    "sampler" : 0,
                    "target" : {
                        "node" : 7,
                        "path" : "translation"
                    }
                },
                {
                    "sampler" : 1,
                    "target" : {
                        "node" : 7,
                        "path" : "rotation"
                    }
                },
                {
                    "sampler" : 2,
                    "target" : {
                        "node" : 7,
                        "path" : "scale"
                    }
                },
                {
                    "sampler" : 3,
                    "target" : {
                        "node" : 0,
                        "path" : "translation"
                    }
                },
                {
                    "sampler" : 4,
                    "target" : {
                        "node" : 0,
                        "path" : "rotation"
                    }
                },
                {
                    "sampler" : 5,
                    "target" : {
                        "node" : 0,
                        "path" : "scale"
                    }
                },
                {
                    "sampler" : 6,
                    "target" : {
                        "node" : 2,
                        "path" : "translation"
                    }
                },
                {
                    "sampler" : 7,
                    "target" : {
                        "node" : 2,
                        "path" : "rotation"
                    }
                },
                {
                    "sampler" : 8,
                    "target" : {
                        "node" : 2,
                        "path" : "scale"
                    }
                },
                {
                    "sampler" : 9,
                    "target" : {
                        "node" : 1,
                        "path" : "translation"
                    }
                },
                {
                    "sampler" : 10,
                    "target" : {
                        "node" : 1,
                        "path" : "rotation"
                    }
                },
                {
                    "sampler" : 11,
                    "target" : {
                        "node" : 1,
                        "path" : "scale"
                    }
                },
                {
                    "sampler" : 12,
                    "target" : {
                        "node" : 4,
                        "path" : "translation"
                    }
                },
                {
                    "sampler" : 13,
                    "target" : {
                        "node" : 4,
                        "path" : "rotation"
                    }
                },
                {
                    "sampler" : 14,
                    "target" : {
                        "node" : 4,
                        "path" : "scale"
                    }
                },
                {
                    "sampler" : 15,
                    "target" : {
                        "node" : 3,
                        "path" : "translation"
                    }
                },
                {
                    "sampler" : 16,
                    "target" : {
                        "node" : 3,
                        "path" : "rotation"
                    }
                },
                {
                    "sampler" : 17,
                    "target" : {
                        "node" : 3,
                        "path" : "scale"
                    }
                },
                {
                    "sampler" : 18,
                    "target" : {
                        "node" : 5,
                        "path" : "translation"
                    }
                },
                {
                    "sampler" : 19,
                    "target" : {
                        "node" : 5,
                        "path" : "rotation"
                    }
                },
                {
                    "sampler" : 20,
                    "target" : {
                        "node" : 5,
                        "path" : "scale"
                    }
                },
                {
                    "sampler" : 21,
                    "target" : {
                        "node" : 6,
                        "path" : "translation"
                    }
                },
                {
                    "sampler" : 22,
                    "target" : {
                        "node" : 6,
                        "path" : "rotation"
                    }
                },
                {
                    "sampler" : 23,
                    "target" : {
                        "node" : 6,
                        "path" : "scale"
                    }
                }
            ],
            "name" : "ArmatureAction",
            "samplers" : [
                {
                    "input" : 7,
                    "interpolation" : "LINEAR",
                    "output" : 8
                },
                {
                    "input" : 7,
                    "interpolation" : "LINEAR",
                    "output" : 9
                },
                {
                    "input" : 7,
                    "interpolation" : "LINEAR",
                    "output" : 10
                },
                {
                    "input" : 7,
                    "interpolation" : "LINEAR",
                    "output" : 11
                },
                {
                    "input" : 7,
                    "interpolation" : "LINEAR",
                    "output" : 12
                },
                {
                    "input" : 7,
                    "interpolation" : "LINEAR",
                    "output" : 13
                },
                {
                    "input" : 7,
                    "interpolation" : "LINEAR",
                    "output" : 14
                },
                {
                    "input" : 7,
                    "interpolation" : "LINEAR",
                    "output" : 15
                },
                {
                    "input" : 7,
                    "interpolation" : "LINEAR",
                    "output" : 16
                },
                {
                    "input" : 7,
                    "interpolation" : "LINEAR",
                    "output" : 17
                },
                {
                    "input" : 7,
                    "interpolation" : "LINEAR",
                    "output" : 18
                },
                {
                    "input" : 7,
                    "interpolation" : "LINEAR",
                    "output" : 19
                },
                {
                    "input" : 7,
                    "interpolation" : "LINEAR",
                    "output" : 20
                },
                {
                    "input" : 7,
                    "interpolation" : "LINEAR",
                    "output" : 21
                },
                {
                    "input" : 7,
                    "interpolation" : "LINEAR",
                    "output" : 22
                },
                {
                    "input" : 7,
                    "interpolation" : "LINEAR",
                    "output" : 23
                },
                {
                    "input" : 7,
                    "interpolation" : "LINEAR",
                    "output" : 24
                },
                {
                    "input" : 7,
                    "interpolation" : "LINEAR",
                    "output" : 25
                },
                {
                    "input" : 7,
                    "interpolation" : "LINEAR",
                    "output" : 26
                },
                {
                    "input" : 7,
                    "interpolation" : "LINEAR",
                    "output" : 27
                },
                {
                    "input" : 7,
                    "interpolation" : "LINEAR",
                    "output" : 28
                },
                {
                    "input" : 7,
                    "interpolation" : "LINEAR",
                    "output" : 29
                },
                {
                    "input" : 7,
                    "interpolation" : "LINEAR",
                    "output" : 30
                },
                {
                    "input" : 7,
                    "interpolation" : "LINEAR",
                    "output" : 31
                }
            ]
        }
    ],
    "materials" : [
        {
            "alphaMode" : "BLEND",
            "doubleSided" : true,
            "name" : "02_-_Default.001",
            "pbrMetallicRoughness" : {
                "metallicFactor" : 0,
                "roughnessFactor" : 0.4000000059604645
            }
        }
    ],
    "meshes" : [
        {
            "name" : "Skeleton_02 - Default_0.002",
            "primitives" : [
                {
                    "attributes" : {
                        "POSITION" : 0,
                        "NORMAL" : 1,
                        "TEXCOORD_0" : 2,
                        "JOINTS_0" : 3,
                        "WEIGHTS_0" : 4
                    },
                    "indices" : 5,
                    "material" : 0
                }
            ]
        }
    ],
    "skins" : [
        {
            "inverseBindMatrices" : 6,
            "joints" : [
                7,
                0,
                2,
                1,
                4,
                3,
                5,
                6
            ],
            "name" : "Armature"
        }
    ],
    "accessors" : [
        {
            "bufferView" : 0,
            "componentType" : 5126,
            "count" : 223,
            "max" : [
                0.5281060934066772,
                4.150120258331299,
                0.7983126640319824
            ],
            "min" : [
                -0.5097335577011108,
                -0.0010383127955719829,
                -0.7590206861495972
            ],
            "type" : "VEC3"
        },
        {
            "bufferView" : 1,
            "componentType" : 5126,
            "count" : 223,
            "type" : "VEC3"
        },
        {
            "bufferView" : 2,
            "componentType" : 5126,
            "count" : 223,
            "type" : "VEC2"
        },
        {
            "bufferView" : 3,
            "componentType" : 5121,
            "count" : 223,
            "type" : "VEC4"
        },
        {
            "bufferView" : 4,
            "componentType" : 5126,
            "count" : 223,
            "type" : "VEC4"
        },
        {
            "bufferView" : 5,
            "componentType" : 5123,
            "count" : 237,
            "type" : "SCALAR"
        },
        {
            "bufferView" : 6,
            "componentType" : 5126,
            "count" : 8,
            "type" : "MAT4"
        },
        {
            "bufferView" : 7,
            "componentType" : 5126,
            "count" : 91,
            "max" : [
                3.75
            ],
            "min" : [
                0
            ],
            "type" : "SCALAR"
        },
        {
            "bufferView" : 8,
            "componentType" : 5126,
            "count" : 91,
            "type" : "VEC3"
        },
        {
            "bufferView" : 9,
            "componentType" : 5126,
            "count" : 91,
            "type" : "VEC4"
        },
        {
            "bufferView" : 10,
            "componentType" : 5126,
            "count" : 91,
            "type" : "VEC3"
        },
        {
            "bufferView" : 11,
            "componentType" : 5126,
            "count" : 91,
            "type" : "VEC3"
        },
        {
            "bufferView" : 12,
            "componentType" : 5126,
            "count" : 91,
            "type" : "VEC4"
        },
        {
            "bufferView" : 13,
            "componentType" : 5126,
            "count" : 91,
            "type" : "VEC3"
        },
        {
            "bufferView" : 14,
            "componentType" : 5126,
            "count" : 91,
            "type" : "VEC3"
        },
        {
            "bufferView" : 15,
            "componentType" : 5126,
            "count" : 91,
            "type" : "VEC4"
        },
        {
            "bufferView" : 16,
            "componentType" : 5126,
            "count" : 91,
            "type" : "VEC3"
        },
        {
            "bufferView" : 17,
            "componentType" : 5126,
            "count" : 91,
            "type" : "VEC3"
        },
        {
            "bufferView" : 18,
            "componentType" : 5126,
            "count" : 91,
            "type" : "VEC4"
        },
        {
            "bufferView" : 19,
            "componentType" : 5126,
            "count" : 91,
            "type" : "VEC3"
        },
        {
            "bufferView" : 20,
            "componentType" : 5126,
            "count" : 91,
            "type" : "VEC3"
        },
        {
            "bufferView" : 21,
            "componentType" : 5126,
            "count" : 91,
            "type" : "VEC4"
        },
        {
            "bufferView" : 22,
            "componentType" : 5126,
            "count" : 91,
            "type" : "VEC3"
        },
        {
            "bufferView" : 23,
            "componentType" : 5126,
            "count" : 91,
            "type" : "VEC3"
        },
        {
            "bufferView" : 24,
            "componentType" : 5126,
            "count" : 91,
            "type" : "VEC4"
        },
        {
            "bufferView" : 25,
            "componentType" : 5126,
            "count" : 91,
            "type" : "VEC3"
        },
        {
            "bufferView" : 26,
            "componentType" : 5126,
            "count" : 91,
            "type" : "VEC3"
        },
        {
            "bufferView" : 27,
            "componentType" : 5126,
            "count" : 91,
            "type" : "VEC4"
        },
        {
            "bufferView" : 28,
            "componentType" : 5126,
            "count" : 91,
            "type" : "VEC3"
        },
        {
            "bufferView" : 29,
            "componentType" : 5126,
            "count" : 91,
            "type" : "VEC3"
        },
        {
            "bufferView" : 30,
            "componentType" : 5126,
            "count" : 91,
            "type" : "VEC4"
        },
        {
            "bufferView" : 31,
            "componentType" : 5126,
            "count" : 91,
            "type" : "VEC3"
        }
    ],
    "bufferViews" : [
        {
            "buffer" : 0,
            "byteLength" : 2676,
            "byteOffset" : 0
        },
        {
            "buffer" : 0,
            "byteLength" : 2676,
            "byteOffset" : 2676
        },
        {
            "buffer" : 0,
            "byteLength" : 1784,
            "byteOffset" : 5352
        },
        {
            "buffer" : 0,
            "byteLength" : 892,
            "byteOffset" : 7136
        },
        {
            "buffer" : 0,
            "byteLength" : 3568,
            "byteOffset" : 8028
        },
        {
            "buffer" : 0,
            "byteLength" : 474,
            "byteOffset" : 11596
        },
        {
            "buffer" : 0,
            "byteLength" : 512,
            "byteOffset" : 12072
        },
        {
            "buffer" : 0,
            "byteLength" : 364,
            "byteOffset" : 12584
        },
        {
            "buffer" : 0,
            "byteLength" : 1092,
            "byteOffset" : 12948
        },
        {
            "buffer" : 0,
            "byteLength" : 1456,
            "byteOffset" : 14040
        },
        {
            "buffer" : 0,
            "byteLength" : 1092,
            "byteOffset" : 15496
        },
        {
            "buffer" : 0,
            "byteLength" : 1092,
            "byteOffset" : 16588
        },
        {
            "buffer" : 0,
            "byteLength" : 1456,
            "byteOffset" : 17680
        },
        {
            "buffer" : 0,
            "byteLength" : 1092,
            "byteOffset" : 19136
        },
        {
            "buffer" : 0,
            "byteLength" : 1092,
            "byteOffset" : 20228
        },
        {
            "buffer" : 0,
            "byteLength" : 1456,
            "byteOffset" : 21320
        },
        {
            "buffer" : 0,
            "byteLength" : 1092,
            "byteOffset" : 22776
        },
        {
            "buffer" : 0,
            "byteLength" : 1092,
            "byteOffset" : 23868
        },
        {
            "buffer" : 0,
            "byteLength" : 1456,
            "byteOffset" : 24960
        },
        {
            "buffer" : 0,
            "byteLength" : 1092,
            "byteOffset" : 26416
        },
        {
            "buffer" : 0,
            "byteLength" : 1092,
            "byteOffset" : 27508
        },
        {
            "buffer" : 0,
            "byteLength" : 1456,
            "byteOffset" : 28600
        },
        {
            "buffer" : 0,
            "byteLength" : 1092,
            "byteOffset" : 30056
        },
        {
            "buffer" : 0,
            "byteLength" : 1092,
            "byteOffset" : 31148
        },
        {
            "buffer" : 0,
            "byteLength" : 1456,
            "byteOffset" : 32240
        },
        {
            "buffer" : 0,
            "byteLength" : 1092,
            "byteOffset" : 33696
        },
        {
            "buffer" : 0,
            "byteLength" : 1092,
            "byteOffset" : 34788
        },
        {
            "buffer" : 0,
            "byteLength" : 1456,
            "byteOffset" : 35880
        },
        {
            "buffer" : 0,
            "byteLength" : 1092,
            "byteOffset" : 37336
        },
        {
            "buffer" : 0,
            "byteLength" : 1092,
            "byteOffset" : 38428
        },
        {
            "buffer" : 0,
            "byteLength" : 1456,
            "byteOffset" : 39520
        },
        {
            "buffer" : 0,
            "byteLength" : 1092,
            "byteOffset" : 40976
        }
    ],
    "buffers" : [
        {
            "byteLength" : 42068,
            "uri" : "data:application/octet-stream;base64,"
        }
    ]
}
