{
    "asset" : {
        "generator" : "Khronos glTF Blender I/O v1.6.16",
        "version" : "2.0"
    },
    "scene" : 0,
    "scenes" : [
        {
            "name" : "Scene",
            "nodes" : [
                9
            ]
        }
    ],
    "nodes" : [
        {
            "name" : "Bone.001",
            "rotation" : [
                0.0007892886642366648,
                -0.0013953144662082195,
                0.008987287990748882,
                0.999958336353302
            ],
            "scale" : [
                1,
                0.9999999403953552,
                1
            ],
            "translation" : [
                1.4699919059779631e-09,
                0.9535037875175476,
                1.1704051616767686e-10
            ]
        },
        {
            "name" : "Bone.005",
            "rotation" : [
                0.00032878873753361404,
                -0.0002560143475420773,
                -0.7189746499061584,
                0.6950361728668213
            ],
            "scale" : [
                0.9999999403953552,
                0.9999998807907104,
                0.9999999403953552
            ],
            "translation" : [
                -1.0453370391516614e-09,
                1.0627756118774414,
                -2.2770070273736565e-08
            ]
        },
        {
            "children" : [
                1
            ],
            "name" : "Bone.003",
            "rotation" : [
                -0.999974250793457,
                0.005964664276689291,
                -9.574015712132677e-05,
                0.004012496676295996
            ],
            "scale" : [
                0.9994354844093323,
                0.9999997615814209,
                0.999778687953949
            ],
            "translation" : [
                -0.021233880892395973,
                1.056335210800171,
                0.5347568988800049
            ]
        },
        {
            "name" : "Bone.008",
            "rotation" : [
                -0.0001744087931001559,
                1.415837868989911e-05,
                -0.724346399307251,
                0.6894362568855286
            ],
            "scale" : [
                1,
                0.9999999403953552,
                1
            ],
            "translation" : [
                2.3793198522525927e-09,
                1.0556962490081787,
                -3.960084526966057e-08
            ]
        },
        {
            "children" : [
                3
            ],
            "name" : "Bone.002",
            "rotation" : [
                0.9998735785484314,
                -0.013929702341556549,
                0.0005259204190224409,
                0.007649731822311878
            ],
            "scale" : [
                0.999915361404419,
                1,
                0.9999956488609314
            ],
            "translation" : [
                -0.02130979299545288,
                1.0649527311325073,
                -0.5364285707473755
            ]
        },
        {
            "name" : "Bone.006",
            "rotation" : [
                0.9998008608818054,
                0.002857339335605502,
                -0.0008515947265550494,
                0.01973116770386696
            ],
            "scale" : [
                1.003424048423767,
                1.0000014305114746,
                1.0003491640090942
            ],
            "translation" : [
                -0.010511423461139202,
                -0.20428748428821564,
                0.2259874939918518
            ]
        },
        {
            "name" : "Bone.007",
            "rotation" : [
                -0.9996709823608398,
                -0.006350526120513678,
                -0.00024181537446565926,
                0.024852033704519272
            ],
            "scale" : [
                1.0008420944213867,
                1.0000005960464478,
                1.0002400875091553
            ],
            "translation" : [
                -0.010625210590660572,
                -0.19103604555130005,
                -0.20996429026126862
            ]
        },
        {
            "children" : [
                0,
                2,
                4,
                5,
                6
            ],
            "name" : "Bone",
            "rotation" : [
                0.0002973979862872511,
                4.056804669971825e-08,
                -0.004253023769706488,
                0.9999909996986389
            ]
        },
        {
            "mesh" : 0,
            "name" : "Skeleton_02 - Default_0",
            "skin" : 0
        },
        {
            "children" : [
                8,
                7
            ],
            "name" : "Armature",
            "scale" : [
                1.2099708318710327,
                1.24997079372406,
                1.2099708318710327
            ],
            "translation" : [
                0.014821246266365051,
                1.7186721563339233,
                0.009976029396057129
            ]
        }
    ],
    "animations" : [
        {
            "channels" : [
                {
                    "sampler" : 0,
                    "target" : {
                        "node" : 7,
                        "path" : "translation"
                    }
                },
                {
                    "sampler" : 1,
                    "target" : {
                        "node" : 7,
                        "path" : "rotation"
                    }
                },
                {
                    "sampler" : 2,
                    "target" : {
                        "node" : 7,
                        "path" : "scale"
                    }
                },
                {
                    "sampler" : 3,
                    "target" : {
                        "node" : 0,
                        "path" : "translation"
                    }
                },
                {
                    "sampler" : 4,
                    "target" : {
                        "node" : 0,
                        "path" : "rotation"
                    }
                },
                {
                    "sampler" : 5,
                    "target" : {
                        "node" : 0,
                        "path" : "scale"
                    }
                },
                {
                    "sampler" : 6,
                    "target" : {
                        "node" : 2,
                        "path" : "translation"
                    }
                },
                {
                    "sampler" : 7,
                    "target" : {
                        "node" : 2,
                        "path" : "rotation"
                    }
                },
                {
                    "sampler" : 8,
                    "target" : {
                        "node" : 2,
                        "path" : "scale"
                    }
                },
                {
                    "sampler" : 9,
                    "target" : {
                        "node" : 1,
                        "path" : "translation"
                    }
                },
                {
                    "sampler" : 10,
                    "target" : {
                        "node" : 1,
                        "path" : "rotation"
                    }
                },
                {
                    "sampler" : 11,
                    "target" : {
                        "node" : 1,
                        "path" : "scale"
                    }
                },
                {
                    "sampler" : 12,
                    "target" : {
                        "node" : 4,
                        "path" : "translation"
                    }
                },
                {
                    "sampler" : 13,
                    "target" : {
                        "node" : 4,
                        "path" : "rotation"
                    }
                },
                {
                    "sampler" : 14,
                    "target" : {
                        "node" : 4,
                        "path" : "scale"
                    }
                },
                {
                    "sampler" : 15,
                    "target" : {
                        "node" : 3,
                        "path" : "translation"
                    }
                },
                {
                    "sampler" : 16,
                    "target" : {
                        "node" : 3,
                        "path" : "rotation"
                    }
                },
                {
                    "sampler" : 17,
                    "target" : {
                        "node" : 3,
                        "path" : "scale"
                    }
                },
                {
                    "sampler" : 18,
                    "target" : {
                        "node" : 5,
                        "path" : "translation"
                    }
                },
                {
                    "sampler" : 19,
                    "target" : {
                        "node" : 5,
                        "path" : "rotation"
                    }
                },
                {
                    "sampler" : 20,
                    "target" : {
                        "node" : 5,
                        "path" : "scale"
                    }
                },
                {
                    "sampler" : 21,
                    "target" : {
                        "node" : 6,
                        "path" : "translation"
                    }
                },
                {
                    "sampler" : 22,
                    "target" : {
                        "node" : 6,
                        "path" : "rotation"
                    }
                },
                {
                    "sampler" : 23,
                    "target" : {
                        "node" : 6,
                        "path" : "scale"
                    }
                }
            ],
            "name" : "ArmatureAction",
            "samplers" : [
                {
                    "input" : 7,
                    "interpolation" : "LINEAR",
                    "output" : 8
                },
                {
                    "input" : 7,
                    "interpolation" : "LINEAR",
                    "output" : 9
                },
                {
                    "input" : 7,
                    "interpolation" : "LINEAR",
                    "output" : 10
                },
                {
                    "input" : 7,
                    "interpolation" : "LINEAR",
                    "output" : 11
                },
                {
                    "input" : 7,
                    "interpolation" : "LINEAR",
                    "output" : 12
                },
                {
                    "input" : 7,
                    "interpolation" : "LINEAR",
                    "output" : 13
                },
                {
                    "input" : 7,
                    "interpolation" : "LINEAR",
                    "output" : 14
                },
                {
                    "input" : 7,
                    "interpolation" : "LINEAR",
                    "output" : 15
                },
                {
                    "input" : 7,
                    "interpolation" : "LINEAR",
                    "output" : 16
                },
                {
                    "input" : 7,
                    "interpolation" : "LINEAR",
                    "output" : 17
                },
                {
                    "input" : 7,
                    "interpolation" : "LINEAR",
                    "output" : 18
                },
                {
                    "input" : 7,
                    "interpolation" : "LINEAR",
                    "output" : 19
                },
                {
                    "input" : 7,
                    "interpolation" : "LINEAR",
                    "output" : 20
                },
                {
                    "input" : 7,
                    "interpolation" : "LINEAR",
                    "output" : 21
                },
                {
                    "input" : 7,
                    "interpolation" : "LINEAR",
                    "output" : 22
                },
                {
                    "input" : 7,
                    "interpolation" : "LINEAR",
                    "output" : 23
                },
                {
                    "input" : 7,
                    "interpolation" : "LINEAR",
                    "output" : 24
                },
                {
                    "input" : 7,
                    "interpolation" : "LINEAR",
                    "output" : 25
                },
                {
                    "input" : 7,
                    "interpolation" : "LINEAR",
                    "output" : 26
                },
                {
                    "input" : 7,
                    "interpolation" : "LINEAR",
                    "output" : 27
                },
                {
                    "input" : 7,
                    "interpolation" : "LINEAR",
                    "output" : 28
                },
                {
                    "input" : 7,
                    "interpolation" : "LINEAR",
                    "output" : 29
                },
                {
                    "input" : 7,
                    "interpolation" : "LINEAR",
                    "output" : 30
                },
                {
                    "input" : 7,
                    "interpolation" : "LINEAR",
                    "output" : 31
                }
            ]
        }
    ],
    "materials" : [
        {
            "alphaMode" : "BLEND",
            "doubleSided" : true,
            "name" : "02_-_Default.001",
            "pbrMetallicRoughness" : {
                "metallicFactor" : 0,
                "roughnessFactor" : 0.4000000059604645
            }
        }
    ],
    "meshes" : [
        {
            "name" : "Skeleton_02 - Default_0.002",
            "primitives" : [
                {
                    "attributes" : {
                        "POSITION" : 0,
                        "NORMAL" : 1,
                        "TEXCOORD_0" : 2,
                        "JOINTS_0" : 3,
                        "WEIGHTS_0" : 4
                    },
                    "indices" : 5,
                    "material" : 0
                }
            ]
        }
    ],
    "skins" : [
        {
            "inverseBindMatrices" : 6,
            "joints" : [
                7,
                0,
                2,
                1,
                4,
                3,
                5,
                6
            ],
            "name" : "Armature"
        }
    ],
    "accessors" : [
        {
            "bufferView" : 0,
            "componentType" : 5126,
            "count" : 223,
            "max" : [
                0.5281060934066772,
                4.150120258331299,
                0.7983126640319824
            ],
            "min" : [
                -0.5097335577011108,
                -0.0010383127955719829,
                -0.7590206861495972
            ],
            "type" : "VEC3"
        },
        {
            "bufferView" : 1,
            "componentType" : 5126,
            "count" : 223,
            "type" : "VEC3"
        },
        {
            "bufferView" : 2,
            "componentType" : 5126,
            "count" : 223,
            "type" : "VEC2"
        },
        {
            "bufferView" : 3,
            "componentType" : 5121,
            "count" : 223,
            "type" : "VEC4"
        },
        {
            "bufferView" : 4,
            "componentType" : 5126,
            "count" : 223,
            "type" : "VEC4"
        },
        {
            "bufferView" : 5,
            "componentType" : 5123,
            "count" : 237,
            "type" : "SCALAR"
        },
        {
            "bufferView" : 6,
            "componentType" : 5126,
            "count" : 8,
            "type" : "MAT4"
        },
        {
            "bufferView" : 7,
            "componentType" : 5126,
            "count" : 91,
            "max" : [
                3.75
            ],
            "min" : [
                0
            ],
            "type" : "SCALAR"
        },
        {
            "bufferView" : 8,
            "componentType" : 5126,
            "count" : 91,
            "type" : "VEC3"
        },
        {
            "bufferView" : 9,
            "componentType" : 5126,
            "count" : 91,
            "type" : "VEC4"
        },
        {
            "bufferView" : 10,
            "componentType" : 5126,
            "count" : 91,
            "type" : "VEC3"
        },
        {
            "bufferView" : 11,
            "componentType" : 5126,
            "count" : 91,
            "type" : "VEC3"
        },
        {
            "bufferView" : 12,
            "componentType" : 5126,
            "count" : 91,
            "type" : "VEC4"
        },
        {
            "bufferView" : 13,
            "componentType" : 5126,
            "count" : 91,
            "type" : "VEC3"
        },
        {
            "bufferView" : 14,
            "componentType" : 5126,
            "count" : 91,
            "type" : "VEC3"
        },
        {
            "bufferView" : 15,
            "componentType" : 5126,
            "count" : 91,
            "type" : "VEC4"
        },
        {
            "bufferView" : 16,
            "componentType" : 5126,
            "count" : 91,
            "type" : "VEC3"
        },
        {
            "bufferView" : 17,
            "componentType" : 5126,
            "count" : 91,
            "type" : "VEC3"
        },
        {
            "bufferView" : 18,
            "componentType" : 5126,
            "count" : 91,
            "type" : "VEC4"
        },
        {
            "bufferView" : 19,
            "componentType" : 5126,
            "count" : 91,
            "type" : "VEC3"
        },
        {
            "bufferView" : 20,
            "componentType" : 5126,
            "count" : 91,
            "type" : "VEC3"
        },
        {
            "bufferView" : 21,
            "componentType" : 5126,
            "count" : 91,
            "type" : "VEC4"
        },
        {
            "bufferView" : 22,
            "componentType" : 5126,
            "count" : 91,
            "type" : "VEC3"
        },
        {
            "bufferView" : 23,
            "componentType" : 5126,
            "count" : 91,
            "type" : "VEC3"
        },
        {
            "bufferView" : 24,
            "componentType" : 5126,
            "count" : 91,
            "type" : "VEC4"
        },
        {
            "bufferView" : 25,
            "componentType" : 5126,
            "count" : 91,
            "type" : "VEC3"
        },
        {
            "bufferView" : 26,
            "componentType" : 5126,
            "count" : 91,
            "type" : "VEC3"
        },
        {
            "bufferView" : 27,
            "componentType" : 5126,
            "count" : 91,
            "type" : "VEC4"
        },
        {
            "bufferView" : 28,
            "componentType" : 5126,
            "count" : 91,
            "type" : "VEC3"
        },
        {
            "bufferView" : 29,
            "componentType" : 5126,
            "count" : 91,
            "type" : "VEC3"
        },
        {
            "bufferView" : 30,
            "componentType" : 5126,
            "count" : 91,
            "type" : "VEC4"
        },
        {
            "bufferView" : 31,
            "componentType" : 5126,
            "count" : 91,
            "type" : "VEC3"
        }
    ],
    "bufferViews" : [
        {
            "buffer" : 0,
            "byteLength" : 2676,
            "byteOffset" : 0
        },
        {
            "buffer" : 0,
            "byteLength" : 2676,
            "byteOffset" : 2676
        },
        {
            "buffer" : 0,
            "byteLength" : 1784,
            "byteOffset" : 5352
        },
        {
            "buffer" : 0,
            "byteLength" : 892,
            "byteOffset" : 7136
        },
        {
            "buffer" : 0,
            "byteLength" : 3568,
            "byteOffset" : 8028
        },
        {
            "buffer" : 0,
            "byteLength" : 474,
            "byteOffset" : 11596
        },
        {
            "buffer" : 0,
            "byteLength" : 512,
            "byteOffset" : 12072
        },
        {
            "buffer" : 0,
            "byteLength" : 364,
            "byteOffset" : 12584
        },
        {
            "buffer" : 0,
            "byteLength" : 1092,
            "byteOffset" : 12948
        },
        {
            "buffer" : 0,
            "byteLength" : 1456,
            "byteOffset" : 14040
        },
        {
            "buffer" : 0,
            "byteLength" : 1092,
            "byteOffset" : 15496
        },
        {
            "buffer" : 0,
            "byteLength" : 1092,
            "byteOffset" : 16588
        },
        {
            "buffer" : 0,
            "byteLength" : 1456,
            "byteOffset" : 17680
        },
        {
            "buffer" : 0,
            "byteLength" : 1092,
            "byteOffset" : 19136
        },
        {
            "buffer" : 0,
            "byteLength" : 1092,
            "byteOffset" : 20228
        },
        {
            "buffer" : 0,
            "byteLength" : 1456,
            "byteOffset" : 21320
        },
        {
            "buffer" : 0,
            "byteLength" : 1092,
            "byteOffset" : 22776
        },
        {
            "buffer" : 0,
            "byteLength" : 1092,
            "byteOffset" : 23868
        },
        {
            "buffer" : 0,
            "byteLength" : 1456,
            "byteOffset" : 24960
        },
        {
            "buffer" : 0,
            "byteLength" : 1092,
            "byteOffset" : 26416
        },
        {
            "buffer" : 0,
            "byteLength" : 1092,
            "byteOffset" : 27508
        },
        {
            "buffer" : 0,
            "byteLength" : 1456,
            "byteOffset" : 28600
        },
        {
            "buffer" : 0,
            "byteLength" : 1092,
            "byteOffset" : 30056
        },
        {
            "buffer" : 0,
            "byteLength" : 1092,
            "byteOffset" : 31148
        },
        {
            "buffer" : 0,
            "byteLength" : 1456,
            "byteOffset" : 32240
        },
        {
            "buffer" : 0,
            "byteLength" : 1092,
            "byteOffset" : 33696
        },
        {
            "buffer" : 0,
            "byteLength" : 1092,
            "byteOffset" : 34788
        },
        {
            "buffer" : 0,
            "byteLength" : 1456,
            "byteOffset" : 35880
        },
        {
            "buffer" : 0,
            "byteLength" : 1092,
            "byteOffset" : 37336
        },
        {
            "buffer" : 0,
            "byteLength" : 1092,
            "byteOffset" : 38428
        },
        {
            "buffer" : 0,
            "byteLength" : 1456,
            "byteOffset" : 39520
        },
        {
            "buffer" : 0,
            "byteLength" : 1092,
            "byteOffset" : 40976
        }
    ],
    "buffers" : [
        {
            "byteLength" : 42068,
            "uri" : "data:application/octet-stream;base64,"
        }
    ]
}
